<?xml version="1.0" encoding="UTF-8"?>
<svg width="3300px" height="2200px" viewBox="0 0 3300 2200" version="1.1" xmlns="http://www.w3.org/2000/svg" xmlns:xlink="http://www.w3.org/1999/xlink">
    <!-- Generator: Sketch 61.2 (89653) - https://sketch.com -->
    <title>Untitled</title>
    <desc>Created with Sketch.</desc>
    <g id="Page-1" stroke="none" stroke-width="1" fill="none" fill-rule="evenodd">
        <g id="doc.music">
            <g id="Notes">
                <rect id="artboard" fill="#FFFFFF" fill-rule="nonzero" x="0" y="0" width="3300" height="2200"></rect>
                <line x1="263" y1="292" x2="3036" y2="292" id="Path" stroke="#000000" stroke-width="0.5"></line>
                <text id="Weight/Scale-Variations" fill="#000000" font-family="Helvetica-Bold, Helvetica" font-size="13" font-weight="bold">
                    <tspan x="263" y="322">Weight/Scale Variations</tspan>
                </text>
                <text id="Ultralight" fill="#000000" font-family="Helvetica" font-size="13" font-weight="normal">
                    <tspan x="533.711" y="322">Ultralight</tspan>
                </text>
                <text id="Thin" fill="#000000" font-family="Helvetica" font-size="13" font-weight="normal">
                    <tspan x="843.422" y="322">Thin</tspan>
                </text>
                <text id="Light" fill="#000000" font-family="Helvetica" font-size="13" font-weight="normal">
                    <tspan x="1138.63" y="322">Light</tspan>
                </text>
                <text id="Regular" fill="#000000" font-family="Helvetica" font-size="13" font-weight="normal">
                    <tspan x="1426.84" y="322">Regular</tspan>
                </text>
                <text id="Medium" fill="#000000" font-family="Helvetica" font-size="13" font-weight="normal">
                    <tspan x="1723.06" y="322">Medium</tspan>
                </text>
                <text id="Semibold" fill="#000000" font-family="Helvetica" font-size="13" font-weight="normal">
                    <tspan x="2015.77" y="322">Semibold</tspan>
                </text>
                <text id="Bold" fill="#000000" font-family="Helvetica" font-size="13" font-weight="normal">
                    <tspan x="2326.48" y="322">Bold</tspan>
                </text>
                <text id="Heavy" fill="#000000" font-family="Helvetica" font-size="13" font-weight="normal">
                    <tspan x="2618.19" y="322">Heavy</tspan>
                </text>
                <text id="Black" fill="#000000" font-family="Helvetica" font-size="13" font-weight="normal">
                    <tspan x="2917.4" y="322">Black</tspan>
                </text>
                <line x1="263" y1="1903" x2="3036" y2="1903" id="Path" stroke="#000000" stroke-width="0.5"></line>
                <g id="Group" transform="translate(264.000000, 1918.000000)" fill="#000000" fill-rule="nonzero">
                    <path d="M8.24805,15.830078 C12.5547,15.830078 16.1387,12.25586 16.1387,7.94922 C16.1387,3.6426 12.5449,0.0684 8.23828,0.0684 C3.94141,0.0684 0.36719,3.6426 0.36719,7.94922 C0.36719,12.25586 3.95117,15.830078 8.24805,15.830078 Z M8.24805,14.345703 C4.70312,14.345703 1.87109,11.50391 1.87109,7.94922 C1.87109,4.3945 4.69336,1.5527 8.23828,1.5527 C11.793,1.5527 14.6348,4.3945 14.6445252,7.94922 C14.6543,11.50391 11.8027,14.345703 8.24805,14.345703 Z M8.22852,11.57227 C8.69727,11.57227 8.9707,11.25977 8.9707,10.74219 L8.9707,8.68164 L11.1973,8.68164 C11.6953,8.68164 12.0371,8.42773 12.0371,7.95898 C12.0371,7.48047 11.7148,7.2168 11.1973,7.2168 L8.9707,7.2168 L8.9707,4.9902 C8.9707,4.4727 8.69727,4.1504 8.22852,4.1504 C7.75977,4.1504 7.50586,4.4922 7.50586,4.9902 L7.50586,7.2168 L5.29883,7.2168 C4.78125,7.2168 4.44922,7.48047 4.44922,7.95898 C4.44922,8.42773 4.80078,8.68164 5.29883,8.68164 L7.50586,8.68164 L7.50586,10.74219 C7.50586,11.24023 7.75977,11.57227 8.22852,11.57227 Z" id="Shape"></path>
                </g>
                <g id="Group" transform="translate(282.506000, 1915.000000)" fill="#000000" fill-rule="nonzero">
                    <path d="M10.709,20.91016 C16.1582,20.91016 20.6699,16.39844 20.6699,10.94922 C20.6699,5.5098 16.1484,0.9883 10.6992,0.9883 C5.25977,0.9883 0.74805,5.5098 0.74805,10.94922 C0.74805,16.39844 5.26953,20.91016 10.709,20.91016 Z M10.709,19.25 C6.09961,19.25 2.41797,15.55859 2.41797,10.94922 C2.41797,6.3496 6.08984,2.6484 10.6992,2.6484 C15.3086,2.6484 19,6.3496 19.009819,10.94922 C19.0195,15.55859 15.3184,19.25 10.709,19.25 Z M10.6895,15.58789 C11.207,15.58789 11.5195,15.22656 11.5195,14.66016 L11.5195,11.76953 L14.5762,11.76953 C15.123,11.76953 15.5039,11.48633 15.5039,10.96875 C15.5039,10.44141 15.1426,10.13867 14.5762,10.13867 L11.5195,10.13867 L11.5195,7.0723 C11.5195,6.4961 11.207,6.1445 10.6895,6.1445 C10.1719,6.1445 9.8789,6.5156 9.8789,7.0723 L9.8789,10.13867 L6.83203,10.13867 C6.26562,10.13867 5.89453,10.44141 5.89453,10.96875 C5.89453,11.48633 6.28516,11.76953 6.83203,11.76953 L9.8789,11.76953 L9.8789,14.66016 C9.8789,15.20703 10.1719,15.58789 10.6895,15.58789 Z" id="Shape"></path>
                </g>
                <g id="Group" transform="translate(306.924000, 1913.000000)" fill="#000000" fill-rule="nonzero">
                    <path d="M12.9707,25.67383 C19.9336,25.67383 25.6953,19.921875 25.6953,12.95898 C25.6953,5.9961 19.9238,0.2441 12.9609,0.2441 C6.00781,0.2441 0.25586,5.9961 0.25586,12.95898 C0.25586,19.921875 6.01758,25.67383 12.9707,25.67383 Z M12.9707,23.85742 C6.93555,23.85742 2.08203,18.99414 2.08203,12.95898 C2.08203,6.9238 6.92578,2.0605 12.9609,2.0605 C19.0059,2.0605 23.8594,6.9238 23.8691148,12.95898 C23.8789,18.99414 19.0156,23.85742 12.9707,23.85742 Z M12.9512,18.93555 C13.5176,18.93555 13.8691,18.54492 13.8691,17.93945 L13.8691,13.86719 L18.1074,13.86719 C18.6934,13.86719 19.1133,13.53516 19.1133,12.97852 C19.1133,12.40234 18.7227,12.06055 18.1074,12.06055 L13.8691,12.06055 L13.8691,7.8125 C13.8691,7.1973 13.5176,6.8066 12.9512,6.8066 C12.3848,6.8066 12.0625,7.2168 12.0625,7.8125 L12.0625,12.06055 L7.83398,12.06055 C7.21875,12.06055 6.80859,12.40234 6.80859,12.97852 C6.80859,13.53516 7.23828,13.86719 7.83398,13.86719 L12.0625,13.86719 L12.0625,17.93945 C12.0625,18.52539 12.3848,18.93555 12.9512,18.93555 Z" id="Shape"></path>
                </g>
                <text id="Design-Variations" fill="#000000" font-family="Helvetica-Bold, Helvetica" font-size="13" font-weight="bold">
                    <tspan x="263" y="1953">Design Variations</tspan>
                </text>
                <text id="Symbols-are-supported-in-up-to-nine-weights-and-three-scales." fill="#000000" font-family="Helvetica" font-size="13" font-weight="normal">
                    <tspan x="263" y="1971">Symbols are supported in up to nine weights and three scales.</tspan>
                </text>
                <text id="For-optimal-layout-with-text-and-other-symbols,-vertically-align" fill="#000000" font-family="Helvetica" font-size="13" font-weight="normal">
                    <tspan x="263" y="1989">For optimal layout with text and other symbols, vertically align</tspan>
                </text>
                <text id="symbols-with-the-adjacent-text." fill="#000000" font-family="Helvetica" font-size="13" font-weight="normal">
                    <tspan x="263" y="2007">symbols with the adjacent text.</tspan>
                </text>
                <rect id="Rectangle" fill="#00AEEF" fill-rule="nonzero" opacity="0.4" x="776" y="1919" width="3" height="14"></rect>
                <g id="Group" transform="translate(779.000000, 1918.000000)" fill="#000000" fill-rule="nonzero">
                    <path d="M10.5273,15 L12.373,15 L7.17773,0.9082 L5.43945,0.9082 L0.244141,15 L2.08984,15 L3.50586,10.9668 L9.11133,10.9668 L10.5273,15 Z M6.2793,3.0469 L6.33789,3.0469 L8.59375,9.47266 L4.02344,9.47266 L6.2793,3.0469 Z" id="Shape"></path>
                </g>
                <rect id="Rectangle" fill="#00AEEF" fill-rule="nonzero" opacity="0.4" x="791.617" y="1919" width="3" height="14"></rect>
                <text id="Margins" fill="#000000" font-family="Helvetica-Bold, Helvetica" font-size="13" font-weight="bold">
                    <tspan x="776" y="1953">Margins</tspan>
                </text>
                <text id="Leading-and-trailing-margins-on-the-left-and-right-side-of-each-symbol" fill="#000000" font-family="Helvetica" font-size="13" font-weight="normal">
                    <tspan x="776" y="1971">Leading and trailing margins on the left and right side of each symbol</tspan>
                </text>
                <text id="can-be-adjusted-by-modifying-the-width-of-the-blue-rectangles." fill="#000000" font-family="Helvetica" font-size="13" font-weight="normal">
                    <tspan x="776" y="1989">can be adjusted by modifying the width of the blue rectangles.</tspan>
                </text>
                <text id="Modifications-are-automatically-applied-proportionally-to-all" fill="#000000" font-family="Helvetica" font-size="13" font-weight="normal">
                    <tspan x="776" y="2007">Modifications are automatically applied proportionally to all</tspan>
                </text>
                <text id="scales-and-weights." fill="#000000" font-family="Helvetica" font-size="13" font-weight="normal">
                    <tspan x="776" y="2025">scales and weights.</tspan>
                </text>
                <g id="Group" transform="translate(1291.000000, 1915.000000)" fill="#000000" fill-rule="nonzero">
                    <path d="M0.83203,21.11523 L2.375,22.6582 C3.22461,23.48828 4.19141,23.41992 5.06055,22.46289 L15.2754,11.33984 C15.7051,11.63281 16.0957,11.62305 16.5645,11.52539 L17.6094,11.31055 L18.3027,12.00391 L18.2539,12.52148 C18.1855,13.04883 18.3516,13.46875 18.8496,13.9668 L19.6602,14.77734 C20.168,15.28516 20.8223,15.31445 21.3008,14.83594 L24.5527,11.58398 C25.0312,11.10547 25.0117,10.45117 24.5039,9.94336 L23.6836,9.12305 C23.1855,8.625 22.7754,8.44922 22.2383,8.52734 L21.7109,8.58594 L21.0566,7.9219 L21.3398,6.7793 C21.4863,6.2129 21.3398,5.7441 20.7148,5.1387 L18.3027,2.7461 C14.7578,-0.7793 10.2266,-0.6719 7.11133,2.4629 C6.69141,2.8926 6.64258,3.4785 6.91602,3.9082 C7.15039,4.2793 7.62891,4.5039 8.2734,4.3379 C9.7871,3.957 11.3008,4.0742 12.7852,5.0801 L12.1602,6.6621 C11.9258,7.248 11.9453,7.7266 12.1797,8.16602 L1.01758,18.439453 C0.08008,19.30859 -0.02734,20.25586 0.83203,21.11523 Z M8.6738,2.8535 C11.3398,0.8613 14.6504,1.1738 17.0527,3.5859 L19.6797,6.1934 C19.9141,6.4277 19.9434,6.6133 19.8848,6.9062 L19.5039,8.46875 L21.0762,10.04102 L22.043,9.95312 C22.3262,9.92383 22.4141,9.94336 22.6387,10.16797 L23.2637,10.79297 L20.5098,13.53711 L19.8848,12.92188 C19.6602,12.69727 19.6406,12.59961 19.6699,12.31641 L19.7578,11.35938 L18.1953,9.79688 L16.5742,10.10938 C16.291,10.16797 16.1445,10.16797 15.9102,9.92383 L13.7324,7.7461 C13.5078,7.5117 13.4785,7.375 13.6055,7.0527 L14.5527,4.7773 C12.9512,3.2441 10.8418,2.3945 8.8008,3.0488 C8.7129,3.0781 8.6445,3.0586 8.6152,3.0195 C8.5859,2.9707 8.5859,2.9219 8.6738,2.8535 Z M2.10156,20.41211 C1.61328,19.91406 1.78906,19.61133 2.12109,19.30859 L13.0781,9.19141 L14.3086,10.42188 L4.15234,21.34961 C3.84961,21.68164 3.46875,21.7793 3.06836,21.37891 L2.10156,20.41211 Z" id="Shape"></path>
                </g>
                <text id="Exporting" fill="#000000" font-family="Helvetica-Bold, Helvetica" font-size="13" font-weight="bold">
                    <tspan x="1289" y="1953">Exporting</tspan>
                </text>
                <text id="Symbols-should-be-outlined-when-exporting-to-ensure-the" fill="#000000" font-family="Helvetica" font-size="13" font-weight="normal">
                    <tspan x="1289" y="1971">Symbols should be outlined when exporting to ensure the</tspan>
                </text>
                <text id="design-is-preserved-when-submitting-to-Xcode." fill="#000000" font-family="Helvetica" font-size="13" font-weight="normal">
                    <tspan x="1289" y="1989">design is preserved when submitting to Xcode.</tspan>
                </text>
                <text id="template-version" fill="#000000" font-family="Helvetica" font-size="13" font-weight="normal">
                    <tspan x="2952" y="1933">Template v.1.0</tspan>
                </text>
                <text id="Generated-from-doc.plaintext" fill="#000000" font-family="Helvetica" font-size="13" font-weight="normal">
                    <tspan x="2868" y="1951">Generated from doc.plaintext</tspan>
                </text>
                <text id="Typeset-at-100-points" fill="#000000" font-family="Helvetica" font-size="13" font-weight="normal">
                    <tspan x="2912" y="1969">Typeset at 100 points</tspan>
                </text>
                <text id="Small" fill="#000000" font-family="Helvetica" font-size="13" font-weight="normal">
                    <tspan x="263" y="726">Small</tspan>
                </text>
                <text id="Medium" fill="#000000" font-family="Helvetica" font-size="13" font-weight="normal">
                    <tspan x="263" y="1156">Medium</tspan>
                </text>
                <text id="Large" fill="#000000" font-family="Helvetica" font-size="13" font-weight="normal">
                    <tspan x="263" y="1586">Large</tspan>
                </text>
            </g>
            <g id="Guides" transform="translate(263.000000, 625.000000)">
                <g id="H-reference" transform="translate(76.000000, 0.000000)" fill="#27AAE1" fill-rule="nonzero">
                    <path d="M54.9316,71 L57.666,71 L30.5664,0.541 L28.0762,0.541 L0.976562,71 L3.66211,71 L12.9395,46.5371 L45.7031,46.5371 L54.9316,71 Z M29.1992,3.9102 L29.4434,3.9102 L44.8242,44.291 L13.8184,44.291 L29.1992,3.9102 Z" id="Shape"></path>
                </g>
                <line x1="0" y1="71" x2="2773" y2="71" id="Baseline-S" stroke="#27AAE1" stroke-width="0.577"></line>
                <line x1="0" y1="0.541" x2="2773" y2="0.541" id="Capline-S" stroke="#27AAE1" stroke-width="0.577"></line>
                <g id="H-reference" transform="translate(76.000000, 430.000000)" fill="#27AAE1" fill-rule="nonzero">
                    <path d="M54.9316,71 L57.666,71 L30.5664,0.541 L28.0762,0.541 L0.976562,71 L3.66211,71 L12.9395,46.5371 L45.7031,46.5371 L54.9316,71 Z M29.1992,3.9102 L29.4434,3.9102 L44.8242,44.291 L13.8184,44.291 L29.1992,3.9102 Z" id="Shape"></path>
                </g>
                <line x1="0" y1="501" x2="2773" y2="501" id="Baseline-M" stroke="#27AAE1" stroke-width="0.577"></line>
                <line x1="0" y1="430.54" x2="2773" y2="430.54" id="Capline-M" stroke="#27AAE1" stroke-width="0.577"></line>
                <g id="H-reference" transform="translate(76.000000, 860.000000)" fill="#27AAE1" fill-rule="nonzero">
                    <path d="M54.9316,71 L57.666,71 L30.5664,0.541 L28.0762,0.541 L0.976562,71 L3.66211,71 L12.9395,46.5371 L45.7031,46.5371 L54.9316,71 Z M29.1992,3.9102 L29.4434,3.9102 L44.8242,44.291 L13.8184,44.291 L29.1992,3.9102 Z" id="Shape"></path>
                </g>
                <line x1="0" y1="931" x2="2773" y2="931" id="Baseline-L" stroke="#27AAE1" stroke-width="0.577"></line>
                <line x1="0" y1="860.54" x2="2773" y2="860.54" id="Capline-L" stroke="#27AAE1" stroke-width="0.577"></line>
                <rect id="left-margin" fill="#00AEEF" fill-rule="nonzero" opacity="0.4" x="1133.33" y="405.79" width="12.4512" height="119.336"></rect>
                <rect id="right-margin" fill="#00AEEF" fill-rule="nonzero" opacity="0.4" x="1227.91" y="405.79" width="12.4512" height="119.336"></rect>
            </g>
            <g id="Symbols" transform="translate(509.000000, 617.000000)" fill="#000000" fill-rule="nonzero">
                <g id="Black-L" transform="translate(2366.650000, 833.000000)">
                    <path d="M23.8926,141.2539 L91.617,141.2539 C106.803,141.2539 115.445,132.6113 115.445,117.377 L115.445,24.2617 C115.445,9.0273 106.803,0.385 91.617,0.385 L23.8926,0.385 C8.707,0.385 0.0645,9.0273 0.0645,24.2617 L0.0645,117.377 C0.0645,132.6113 8.707,141.2539 23.8926,141.2539 Z M26.7246,121.0391 C22.1836,121.0391 20.3281,118.8418 20.3281,114.64258 L20.3281,26.9961 C20.3281,22.748 22.1836,20.5996 26.7246,20.5996 L88.785,20.5996 C93.326,20.5996 95.23,22.748 95.23,26.9961 L95.23,114.64258 C95.23,118.8418 93.326,121.0391 88.785,121.0391 L26.7246,121.0391 Z M45.8109375,106.830463 C51.8929687,106.830463 60.2601562,102.471088 60.2601562,91.9945254 L60.2601562,59.6156192 C60.2601562,58.2796817 60.2953125,58.2445254 61.490625,57.9632754 L78.1546875,54.3421817 C79.8070312,53.9554629 80.896875,52.6195254 80.896875,50.8968692 L80.896875,37.9945254 C80.896875,35.3578067 78.7171875,33.5648379 76.1507812,34.0921817 L57.8695312,38.0999942 C55.021875,38.7328067 53.475,40.3148379 53.475,42.7757754 L53.475,80.8851504 C53.475,82.1859317 52.9476562,82.9242129 51.8226562,83.1703067 L45.9867187,84.3656192 C38.1117187,85.9828067 34.35,90.1664004 34.35,96.2484317 C34.35,103.314838 39.7640625,106.830463 45.8109375,106.830463 Z" id="Shape"></path>
                </g>
                <g id="Heavy-L" transform="translate(2071.180000, 834.000000)">
                    <path d="M22.7207,139.5215 L90.348,139.5215 C104.898,139.5215 112.955,131.416 112.955,116.7676 L112.955,22.8711 C112.955,8.2715 104.898,0.117 90.348,0.117 L22.7207,0.117 C8.1699,0.117 0.0645,8.2715 0.0645,22.8711 L0.0645,116.7676 C0.0645,131.416 8.1211,139.5215 22.7207,139.5215 Z M24.9668,121.9922 C19.8887,121.9922 17.5938,119.502 17.5938,114.66797 L17.5938,24.9707 C17.5938,20.1855 19.8887,17.6465 25.0156,17.6465 L88.053,17.6465 C93.18,17.6465 95.475,20.1367 95.475,24.9707 L95.475,114.66797 C95.475,119.502 93.18,121.9922 88.053,121.9922 L24.9668,121.9922 Z M45.4066563,107.460938 C51.27775,107.460938 59.5043125,103.207031 59.5043125,92.765625 L59.5043125,60.421875 C59.5043125,58.9804688 59.6097813,58.875 60.9105625,58.59375 L77.574625,54.9726563 C79.1566563,54.6210938 80.1410313,53.3554688 80.1410313,51.7382813 L80.1410313,38.765625 C80.1410313,36.3046875 78.137125,34.6171875 75.7113438,35.109375 L57.324625,39.1171875 C54.5824375,39.7148438 53.105875,41.2265625 53.105875,43.6171875 L53.1761875,81.9726563 C53.1761875,83.34375 52.5785313,84.1523438 51.3832188,84.3984375 L45.6175938,85.59375 C37.8832188,87.1757813 34.2269688,91.2539063 34.2269688,97.1601563 C34.2269688,103.875 39.3597813,107.460938 45.4066563,107.460938 Z" id="Shape"></path>
                </g>
                <g id="Bold-L" transform="translate(1775.860000, 834.000000)">
                    <path d="M21.4023,138.6914 L88.883,138.6914 C102.701,138.6914 110.172,131.1719 110.172,117.2559 L110.172,22.4316 C110.172,8.5156 102.701,0.947 88.883,0.947 L21.4023,0.947 C7.584,0.947 0.0645,8.5156 0.0645,22.4316 L0.0645,117.2559 C0.0645,131.1719 7.5352,138.6914 21.4023,138.6914 Z M23.0137,124.2383 C17.252,124.2383 14.5176,121.3086 14.5176,115.791 L14.5176,23.8477 C14.5176,18.4277 17.252,15.4004 23.0625,15.4004 L87.223,15.4004 C92.984,15.4004 95.719,18.3301 95.719,23.8477 L95.719,115.791 C95.719,121.3086 92.984,124.2383 87.223,124.2383 L23.0137,124.2383 Z M44.2090781,107.285156 C49.8340781,107.285156 57.9551719,103.136719 57.9551719,92.765625 L57.9551719,60.4921875 C57.9551719,58.9101562 58.1309531,58.734375 59.5020469,58.453125 L76.2012656,54.796875 C77.6778281,54.4804687 78.6270469,53.3203125 78.6270469,51.8085937 L78.6270469,38.765625 C78.6270469,36.4453125 76.7286094,34.8984375 74.4786094,35.390625 L56.0215781,39.3984375 C53.3848594,39.9960937 51.9786094,41.4023437 51.9786094,43.6875 L52.0840781,82.2890625 C52.0840781,83.765625 51.4512656,84.6445312 50.1856406,84.9257812 L44.4551719,86.0859375 C36.9317344,87.6679687 33.3809531,91.6054687 33.3809531,97.3359375 C33.3809531,103.59375 38.1973594,107.285156 44.2090781,107.285156 Z" id="Shape"></path>
                </g>
                <g id="Semibold-L" transform="translate(1480.100000, 835.000000)">
                    <path d="M20.4746,137.1055 L87.857,137.1055 C101.188,137.1055 108.268,130.0254 108.268,116.5488 L108.268,21.0898 C108.268,7.6621 101.188,0.533 87.857,0.533 L20.4746,0.533 C7.1445,0.533 0.0645,7.6621 0.0645,21.0898 L0.0645,116.5488 C0.0645,130.0254 7.0957,137.1055 20.4746,137.1055 Z M21.6465,124.8008 C15.4453,124.8008 12.418,121.5781 12.418,115.5723 L12.418,22.0664 C12.418,16.207 15.4453,12.8867 21.6953,12.8867 L86.637,12.8867 C92.838,12.8867 95.914,16.1094 95.914,22.0664 L95.914,115.5723 C95.914,121.5781 92.838,124.8008 86.686,124.8008 L21.6465,124.8008 Z M42.4820312,104.696456 C47.9664062,104.696456 56.0171875,100.653487 56.0171875,90.2472368 L56.0171875,58.0441118 C56.0171875,56.391768 56.228125,56.1808305 57.6695312,55.8644243 L74.36875,52.2081743 C75.775,51.891768 76.6539062,50.8019243 76.6539062,49.3956743 L76.6539062,36.282393 C76.6539062,34.1027055 74.8960937,32.626143 72.7515625,33.0831743 L54.2242187,37.126143 C51.6578125,37.688643 50.2867187,39.0245805 50.2867187,41.2394243 L50.4625,80.0519243 C50.4625,81.563643 49.759375,82.5128618 48.4234375,82.7941118 L42.7632812,83.954268 C35.3804687,85.501143 31.9,89.3331743 31.9,94.9581743 C31.9,100.934737 36.5054687,104.696456 42.4820312,104.696456 Z" id="Shape"></path>
                </g>
                <g id="Medium-L" transform="translate(1184.120000, 835.000000)">
                    <path d="M19.791,136.666 L87.076,136.666 C100.064,136.666 106.803,129.9277 106.803,116.793 L106.803,20.8945 C106.803,7.8086 100.064,0.973 87.076,0.973 L19.791,0.973 C6.8516,0.973 0.0645,7.8086 0.0645,20.8945 L0.0645,116.793 C0.0645,129.9277 6.8027,136.666 19.791,136.666 Z M20.6211,125.9727 C14.127,125.9727 10.8066,122.5059 10.8066,116.1582 L10.8066,21.4805 C10.8066,15.2793 14.127,11.7148 20.6699,11.7148 L86.197,11.7148 C92.74,11.7148 96.061,15.1328 96.061,21.4805 L96.061,116.1582 C96.061,122.5059 92.74,125.9727 86.246,125.9727 L20.6211,125.9727 Z M42.4490781,106.074219 C47.8279844,106.074219 55.7732969,102.101563 55.7732969,91.7304688 L55.7732969,59.5273438 C55.7732969,57.8398438 56.0193906,57.59375 57.5311094,57.2773438 L74.2654844,53.5859375 C75.6014219,53.3046875 76.4451719,52.25 76.4451719,50.9140625 L76.4451719,37.765625 C76.4451719,35.65625 74.7576719,34.25 72.6834531,34.7070313 L54.1209531,38.75 C51.6248594,39.2773438 50.2889219,40.6132813 50.2889219,42.7929688 L50.4647031,81.7109375 C50.4647031,83.2578125 49.7615781,84.2773438 48.3904844,84.5234375 L42.7654844,85.71875 C35.4529844,87.2304688 32.0428281,90.9921875 32.0428281,96.5117188 C32.0428281,102.3125 36.5076719,106.074219 42.4490781,106.074219 Z" id="Shape"></path>
                </g>
                <g id="Regular-L" transform="translate(888.360000, 836.000000)">
                    <path d="M18.8633,135.1289 L86.1,135.1289 C98.6,135.1289 104.898,128.7324 104.898,116.1348 L104.898,19.5527 C104.898,6.9551 98.6,0.559 86.1,0.559 L18.8633,0.559 C6.4609,0.559 0.0645,6.9551 0.0645,19.5527 L0.0645,116.1348 C0.0645,128.7324 6.3633,135.1289 18.8633,135.1289 Z M85.611,9.2012 C92.643,9.2012 96.256,12.9121 96.256,19.748 L96.256,115.9395 C96.256,122.7754 92.643,126.4863 85.66,126.4863 L19.3027,126.4863 C12.3203,126.4863 8.707,122.7754 8.707,115.9395 L8.707,19.748 C8.707,13.0586 12.3203,9.2012 19.3516,9.2012 L85.611,9.2012 Z M71.425875,33.8828125 L52.7930625,37.9257813 C50.3672813,38.453125 49.0665,39.71875 49.0665,41.828125 L49.3125938,80.921875 C49.3125938,82.5390625 48.5743125,83.59375 47.1329063,83.875 L41.5430625,85.0703125 C34.3711875,86.546875 31.0313438,90.2382813 31.0313438,95.6171875 C31.0313438,101.101563 35.28525,104.96875 41.1915,104.96875 C46.4297813,104.96875 54.3047813,101.066406 54.3047813,90.7304688 L54.3047813,58.5625 C54.3047813,56.8046875 54.5860313,56.4882813 56.1680625,56.171875 L72.9024375,52.4804688 C74.1680625,52.1992188 74.9766563,51.2148438 74.9766563,49.984375 L74.9766563,36.7304688 C74.9766563,34.7617188 73.3594688,33.4609375 71.425875,33.8828125 Z" id="Shape"></path>
                </g>
                <g id="Light-L" transform="translate(592.430000, 836.000000)">
                    <path d="M17.9355,134.7871 L85.514,134.7871 C97.281,134.7871 103.336,128.6836 103.336,116.8184 L103.336,18.918 C103.336,7.0527 97.281,0.949 85.514,0.949 L17.9355,0.949 C6.2168,0.949 0.0645,7.0527 0.0645,18.918 L0.0645,116.8184 C0.0645,128.6836 6.1191,134.7871 17.9355,134.7871 Z M85.172,7.541 C92.789,7.541 96.744,11.5449 96.744,19.0645 L96.744,116.6719 C96.744,124.1914 92.789,128.1953 85.172,128.1953 L18.2285,128.1953 C10.6113,128.1953 6.7051,124.1914 6.7051,116.6719 L6.7051,19.0645 C6.7051,11.7402 10.6113,7.541 18.2773,7.541 L85.172,7.541 Z M69.7184375,33.0795414 L51.1207812,37.1225102 C48.7653125,37.6146977 47.5348437,38.8451664 47.5348437,40.8490727 L47.7457812,79.4154789 C47.7457812,81.0678227 46.9723437,82.1576664 45.4957812,82.4389164 L39.9059375,83.5990727 C32.8395312,85.1107914 29.57,88.6967289 29.57,94.0053227 C29.57,99.4193852 33.7184375,103.181104 39.554375,103.181104 C44.7223437,103.181104 52.491875,99.3490727 52.491875,89.1537602 L52.491875,57.5131352 C52.491875,55.7201664 52.8082812,55.3686039 54.4254687,55.0170414 L71.195,51.3256352 C72.4254687,51.0795414 73.2340625,50.0600102 73.2340625,48.8295414 L73.2340625,35.9271977 C73.2340625,33.9584477 71.6520312,32.6576664 69.7184375,33.0795414 Z" id="Shape"></path>
                </g>
                <g id="Thin-L" transform="translate(296.747000, 837.000000)">
                    <path d="M16.666,133.3477 L84.732,133.3477 C95.572,133.3477 101.285,127.6348 101.285,116.7461 L101.285,17.0391 C101.285,6.1504 95.572,0.438 84.732,0.438 L16.666,0.438 C5.9238,0.438 0.0645,6.1504 0.0645,17.0391 L0.0645,116.7461 C0.0645,127.6348 5.7773,133.3477 16.666,133.3477 Z M84.537,4.3438 C92.984,4.3438 97.379,8.7383 97.379,17.1855 L97.379,116.5996 C97.379,125.0469 92.984,129.4414 84.537,129.4414 L16.8613,129.4414 C8.3652,129.4414 3.9707,125.0469 3.9707,116.5996 L3.9707,17.1855 C3.9707,9.0312 8.3652,4.3438 16.8613,4.3438 L84.537,4.3438 Z M69.0850312,32.0680867 L50.5225312,36.0758992 C48.237375,36.5680867 47.0772187,37.728243 47.0772187,39.6618367 L47.3233125,77.4548055 C47.3233125,79.1774617 46.4795625,80.3024617 44.9326875,80.618868 L39.4131562,81.7790242 C32.4522187,83.2204305 29.253,86.7360555 29.253,91.9391805 C29.253,97.212618 33.2959687,100.904024 39.0264375,100.904024 C44.1240937,100.904024 51.6826875,97.1774617 51.6826875,87.1227742 L51.6826875,56.1852742 C51.6826875,54.321993 52.03425,53.9352742 53.7569062,53.5485555 L70.5264375,49.8923055 C71.7920625,49.6110555 72.6006562,48.6266805 72.6006562,47.3610555 L72.6006562,34.9508992 C72.6006562,32.9821492 71.018625,31.681368 69.0850312,32.0680867 Z" id="Shape"></path>
                </g>
                <g id="Ultralight-L" transform="translate(0.549000, 837.000000)">
                    <path d="M15.9824,133.1523 L84.293,133.1523 C94.693,133.1523 100.26,127.5859 100.26,117.2344 L100.26,16.5508 C100.26,6.1992 94.693,0.682 84.293,0.682 L15.9824,0.682 C5.7773,0.682 0.0645,6.1992 0.0645,16.5508 L0.0645,117.2344 C0.0645,127.5859 5.6309,133.1523 15.9824,133.1523 Z M84.195,3.2207 C93.082,3.2207 97.672,7.8105 97.672,16.7461 L97.672,117.0391 C97.672,125.9746 93.082,130.5645 84.195,130.5645 L16.1289,130.5645 C7.2422,130.5645 2.6035,125.9746 2.6035,117.0391 L2.6035,16.7461 C2.6035,8.1523 7.2422,3.2207 16.1289,3.2207 L84.195,3.2207 Z M68.10725,33.0795414 L49.5799063,37.0521977 C47.3299063,37.5443852 46.2049063,38.6693852 46.2049063,40.5326664 L46.451,77.9389164 C46.451,79.6967289 45.5720938,80.8568852 44.0252188,81.1732914 L38.5056875,82.3334477 C31.6502188,83.7748539 28.451,87.2201664 28.451,92.3881352 C28.451,97.5912602 32.4236563,101.212354 38.0838125,101.212354 C43.1463125,101.212354 50.6345938,97.5561039 50.6345938,87.5717289 L50.6345938,57.0209477 C50.6345938,55.1225102 51.0213125,54.7357914 52.7439688,54.3139164 L69.5486563,50.6225102 C70.8142813,50.3764164 71.5877188,49.3920414 71.5877188,48.1264164 L71.5877188,35.9271977 C71.5877188,33.9584477 70.0408438,32.6576664 68.10725,33.0795414 Z" id="Shape"></path>
                </g>
                <g id="Black-M" transform="translate(2377.980000, 418.000000)">
                    <path d="M19.9824,111.2148 L72.8633,111.2148 C85.1191,111.2148 92.395,103.9395 92.395,91.683594 L92.395,19.9062 C92.395,7.6504 85.1191,0.375 72.8633,0.375 L19.9824,0.375 C7.7266,0.375 0.4512,7.6504 0.4512,19.9062 L0.4512,91.683594 C0.4512,103.9395 7.7266,111.2148 19.9824,111.2148 Z M69.9336,18.6855 C73.0098,18.6855 74.1328,20.0039 74.1328,22.8359 L74.1328,88.75391 C74.1328,91.585938 73.0098,92.9043 69.9336,92.9043 L22.9121,92.9043 C19.8359,92.9043 18.7617,91.585938 18.7617,88.75391 L18.7617,22.8359 C18.7617,20.0039 19.8359,18.6855 22.9121,18.6855 L69.9336,18.6855 Z M61.6021563,27.4492188 L47.3834063,30.5664062 C45.1685625,31.0585938 43.9654375,32.2890625 43.9654375,34.203125 L43.9654375,63.84375 C43.9654375,64.8554688 43.5552813,65.4296875 42.6802813,65.6210938 L38.1412188,66.5507812 C32.0162188,67.8085938 29.0904375,71.0625 29.0904375,75.7929688 C29.0904375,81.2890625 33.301375,84.0234375 38.0045,84.0234375 C42.7349688,84.0234375 49.2427813,80.6328125 49.2427813,72.484375 L49.2427813,47.3007812 C49.2427813,46.2617188 49.270125,46.234375 50.1998125,46.015625 L63.16075,43.1992188 C64.4459063,42.8984375 65.2935625,41.859375 65.2935625,40.5195312 L65.2935625,30.484375 C65.2935625,28.4335938 63.59825,27.0390625 61.6021563,27.4492188 Z" id="Shape"></path>
                </g>
                <g id="Heavy-M" transform="translate(2082.410000, 419.000000)">
                    <path d="M18.957,109.4824 L71.5938,109.4824 C83.3125,109.4824 90.1,102.7441 90.1,90.976562 L90.1,18.6621 C90.1,6.8945 83.3125,0.1074 71.5938,0.1074 L18.957,0.1074 C7.1895,0.1074 0.4512,6.8945 0.4512,18.6621 L0.4512,90.976562 C0.4512,102.7441 7.1895,109.4824 18.957,109.4824 Z M69.25,15.9277 C72.8145,15.9277 74.2793,17.5879 74.2793,20.9082 L74.2793,88.68164 C74.2793,92.00195 72.8145,93.66211 69.25,93.66211 L21.252,93.66211 C17.7363,93.66211 16.2715,92.00195 16.2715,88.68164 L16.2715,20.9082 C16.2715,17.6367 17.7363,15.9277 21.3008,15.9277 L69.25,15.9277 Z M60.1721563,26.640625 L45.871375,29.7578125 C43.7385625,30.2226563 42.590125,31.3984375 42.590125,33.2578125 L42.6448125,63.0898438 C42.6448125,64.15625 42.1799688,64.7851563 41.2502813,64.9765625 L36.7659063,65.90625 C30.7502813,67.1367188 27.9065313,70.3085938 27.9065313,74.9023438 C27.9065313,80.125 31.8987188,82.9140625 36.6018438,82.9140625 C41.16825,82.9140625 47.5666875,79.6054688 47.5666875,71.484375 L47.5666875,46.328125 C47.5666875,45.2070313 47.6487188,45.125 48.6604375,44.90625 L61.621375,42.0898438 C62.8518438,41.8164063 63.6174688,40.8320313 63.6174688,39.5742188 L63.6174688,29.484375 C63.6174688,27.5703125 62.058875,26.2578125 60.1721563,26.640625 Z" id="Shape"></path>
                </g>
                <g id="Bold-M" transform="translate(1787.000000, 419.000000)">
                    <path d="M17.7852,108.7012 L70.1777,108.7012 C81.3105,108.7012 87.5117,102.5 87.5117,91.26953 L87.5117,18.3691 C87.5117,7.1387 81.3105,0.9375 70.1777,0.9375 L17.7852,0.9375 C6.6035,0.9375 0.4512,7.1387 0.4512,18.3691 L0.4512,91.26953 C0.4512,102.5 6.6035,108.7012 17.7852,108.7012 Z M68.4688,14.0234 C72.5703,14.0234 74.4258,16.0254 74.4258,19.8828 L74.4258,89.755859 C74.4258,93.56445 72.5703,95.61523 68.5176,95.61523 L19.4453,95.61523 C15.3926,95.61523 13.5371,93.56445 13.5371,89.755859 L13.5371,19.8828 C13.5371,16.0742 15.3926,14.0234 19.4453,14.0234 L68.4688,14.0234 Z M59.0411406,26.859375 L44.6856719,29.9765625 C42.6348906,30.4414062 41.5411406,31.5351562 41.5411406,33.3125 L41.6231719,63.3359375 C41.6231719,64.484375 41.1309844,65.1679688 40.1466094,65.3867188 L35.6895781,66.2890625 C29.8380156,67.5195312 27.0762969,70.5820312 27.0762969,75.0390625 C27.0762969,79.90625 30.8223906,82.7773438 35.4981719,82.7773438 C39.8731719,82.7773438 46.1895781,79.5507812 46.1895781,71.484375 L46.1895781,46.3828125 C46.1895781,45.1523438 46.3262969,45.015625 47.3927031,44.796875 L60.3809844,41.953125 C61.5294219,41.7070312 62.2677031,40.8046875 62.2677031,39.6289062 L62.2677031,29.484375 C62.2677031,27.6796875 60.7911406,26.4765625 59.0411406,26.859375 Z" id="Shape"></path>
                </g>
                <g id="Semibold-M" transform="translate(1491.190000, 420.000000)">
                    <path d="M17.0039,107.1152 L69.1523,107.1152 C79.9434,107.1152 85.7051,101.3535 85.7051,90.46484 L85.7051,17.1738 C85.7051,6.334 79.9434,0.4746 69.1523,0.4746 L17.0039,0.4746 C6.2129,0.4746 0.4512,6.334 0.4512,17.1738 L0.4512,90.46484 C0.4512,101.3535 6.2129,107.1152 17.0039,107.1152 Z M67.9805,11.6562 C72.375,11.6562 74.5234,13.9512 74.5234,18.1504 L74.5234,89.439453 C74.5234,93.6875 72.375,95.93359 67.9805,95.93359 L18.1758,95.93359 C13.7324,95.93359 11.6328,93.6875 11.6328,89.439453 L11.6328,18.1504 C11.6328,14 13.7324,11.6562 18.1758,11.6562 L67.9805,11.6562 Z M57.8511406,25.9960937 L43.4409844,29.140625 C41.4448906,29.578125 40.3784844,30.6171875 40.3784844,32.3398437 L40.5152031,62.5273437 C40.5152031,63.703125 39.9683281,64.4414062 38.9292656,64.6601562 L34.5269219,65.5625 C28.7847344,66.765625 26.0777031,69.7460937 26.0777031,74.1210937 C26.0777031,78.7695312 29.6597344,81.6953125 34.3081719,81.6953125 C38.5737969,81.6953125 44.8355156,78.5507812 44.8355156,70.4570312 L44.8355156,45.4101562 C44.8355156,44.125 44.9995781,43.9609375 46.1206719,43.7148437 L59.1089531,40.8710937 C60.2027031,40.625 60.8862969,39.7773437 60.8862969,38.6835937 L60.8862969,28.484375 C60.8862969,26.7890625 59.5191094,25.640625 57.8511406,25.9960937 Z" id="Shape"></path>
                </g>
                <g id="Medium-M" transform="translate(1195.160000, 420.000000)">
                    <path d="M16.3691,106.7246 L68.4199,106.7246 C78.918,106.7246 84.3379,101.207 84.3379,90.61133 L84.3379,16.9785 C84.3379,6.4316 78.918,0.9141 68.4199,0.9141 L16.3691,0.9141 C5.9199,0.9141 0.4512,6.4316 0.4512,16.9785 L0.4512,90.61133 C0.4512,101.207 5.9199,106.7246 16.3691,106.7246 Z M67.541,10.6309 C72.2773,10.6309 74.6211,13.1211 74.6211,17.6133 L74.6211,89.976562 C74.6211,94.51758 72.2773,96.95898 67.5898,96.95898 L17.1992,96.95898 C12.5117,96.95898 10.168,94.51758 10.168,89.976562 L10.168,17.6133 C10.168,13.1699 12.5117,10.6309 17.248,10.6309 L67.541,10.6309 Z M57.8537969,26.1054688 L43.4162969,29.25 C41.4748906,29.6601563 40.4358281,30.6992188 40.4358281,32.3945313 L40.5725469,62.6640625 C40.5725469,63.8671875 40.0256719,64.6601563 38.9592656,64.8515625 L34.5842656,65.78125 C28.8967656,66.9570313 26.2444219,69.8828125 26.2444219,74.1757813 C26.2444219,78.6875 29.7170781,81.6132813 34.3381719,81.6132813 C38.5217656,81.6132813 44.7014531,78.5234375 44.7014531,70.4570313 L44.7014531,45.4101563 C44.7014531,44.0976563 44.8928594,43.90625 46.0686406,43.6601563 L59.0842656,40.7890625 C60.1233281,40.5703125 60.7795781,39.75 60.7795781,38.7109375 L60.7795781,28.484375 C60.7795781,26.84375 59.4670781,25.75 57.8537969,26.1054688 Z" id="Shape"></path>
                </g>
                <g id="Regular-M" transform="translate(899.330000, 421.000000)">
                    <path d="M15.5879,105.1387 L67.4434,105.1387 C77.5508,105.1387 82.5801,100.0605 82.5801,89.85547 L82.5801,15.7832 C82.5801,5.627 77.5508,0.4512 67.4434,0.4512 L15.5879,0.4512 C5.5293,0.4512 0.4512,5.627 0.4512,15.7832 L0.4512,89.85547 C0.4512,100.0605 5.4805,105.1387 15.5879,105.1387 Z M67.0527,8.3125 C72.1309,8.3125 74.7188,11.0469 74.7188,15.9297 L74.7188,89.70898 C74.7188,94.5918 72.1309,97.27734 67.1016,97.27734 L15.9297,97.27734 C10.9004,97.27734 8.3125,94.5918 8.3125,89.70898 L8.3125,15.9297 C8.3125,11.0957 10.9004,8.3125 15.9785,8.3125 L67.0527,8.3125 Z M56.170125,25.2421875 L41.6779375,28.3867188 C39.7912188,28.796875 38.7795,29.78125 38.7795,31.421875 L38.9709063,61.828125 C38.9709063,63.0859375 38.3966875,63.90625 37.2755938,64.125 L32.9279375,65.0546875 C27.3498125,66.203125 24.7521563,69.0742188 24.7521563,73.2578125 C24.7521563,77.5234375 28.06075,80.53125 32.6545,80.53125 C36.7287188,80.53125 42.8537188,77.4960938 42.8537188,69.4570313 L42.8537188,44.4375 C42.8537188,43.0703125 43.0724688,42.8242188 44.3029375,42.578125 L57.3185625,39.7070313 C58.3029375,39.4882813 58.9318438,38.7226563 58.9318438,37.765625 L58.9318438,27.4570313 C58.9318438,25.9257813 57.6740313,24.9140625 56.170125,25.2421875 Z" id="Shape"></path>
                </g>
                <g id="Light-M" transform="translate(603.330000, 421.000000)">
                    <path d="M14.709,104.8457 L66.9062,104.8457 C76.3789,104.8457 81.1641,100.0117 81.1641,90.49023 L81.1641,15.1973 C81.1641,5.6758 76.3789,0.793 66.9062,0.793 L14.709,0.793 C5.334,0.793 0.4512,5.6758 0.4512,15.1973 L0.4512,90.49023 C0.4512,100.0117 5.2852,104.8457 14.709,104.8457 Z M66.6133,6.8477 C72.2285,6.8477 75.1582,9.8262 75.1582,15.3438 L75.1582,90.34375 C75.1582,95.86133 72.2285,98.8398 66.6133,98.8398 L15.002,98.8398 C9.3867,98.8398 6.5059,95.86133 6.5059,90.34375 L6.5059,15.3438 C6.5059,9.9238 9.3867,6.8477 15.0508,6.8477 L66.6133,6.8477 Z M56.0880938,25.625 L41.62325,28.7695312 C39.7912188,29.1523437 38.8341875,30.109375 38.8341875,31.6679687 L38.99825,61.6640625 C38.99825,62.9492187 38.3966875,63.796875 37.24825,64.015625 L32.9005938,64.9179687 C27.4045,66.09375 24.8615313,68.8828125 24.8615313,73.0117187 C24.8615313,77.2226562 28.0880938,80.1484375 32.6271563,80.1484375 C36.6466875,80.1484375 42.6896563,77.1679687 42.6896563,69.2382812 L42.6896563,44.6289062 C42.6896563,43.234375 42.93575,42.9609375 44.1935625,42.6875 L57.2365313,39.8164062 C58.1935625,39.625 58.8224688,38.8320312 58.8224688,37.875 L58.8224688,27.8398437 C58.8224688,26.3085937 57.592,25.296875 56.0880938,25.625 Z" id="Shape"></path>
                </g>
                <g id="Thin-M" transform="translate(307.518000, 422.000000)">
                    <path d="M13.5859,103.4551 L66.2227,103.4551 C74.8164,103.4551 79.3574,98.9629 79.3574,90.32031 L79.3574,13.416 C79.3574,4.7734 74.8164,0.2324 66.2227,0.2324 L13.5859,0.2324 C5.041,0.2324 0.4512,4.7734 0.4512,13.416 L0.4512,90.32031 C0.4512,98.9629 4.9434,103.4551 13.5859,103.4551 Z M13.7324,99.8418 C7.3848,99.8418 4.0645,96.52148 4.0645,90.17383 L4.0645,13.5137 C4.0645,7.4102 7.3848,3.8457 13.7812,3.8457 L66.0273,3.8457 C72.4238,3.8457 75.7441,7.2148 75.7441,13.5137 L75.7441,90.17383 C75.7441,96.52148 72.4238,99.8418 66.0273,99.8418 L13.7324,99.8418 Z M31.3981406,78.65625 C35.3629844,78.65625 41.2418906,75.7578125 41.2418906,67.9375 L41.2418906,43.875 C41.2418906,42.4257813 41.5153281,42.125 42.8551719,41.8242188 L55.8981406,38.9804688 C56.8825156,38.7617188 57.5114219,37.9960938 57.5114219,37.0117188 L57.5114219,27.359375 C57.5114219,25.828125 56.2809531,24.8164063 54.7770469,25.1171875 L40.3395469,28.234375 C38.5622031,28.6171875 37.6598594,29.5195313 37.6598594,31.0234375 L37.8512656,60.4179688 C37.8512656,61.7578125 37.1950156,62.6328125 35.9918906,62.8789063 L31.6989219,63.78125 C26.2848594,64.9023438 23.7965781,67.6367188 23.7965781,71.6835938 C23.7965781,75.7851563 26.9411094,78.65625 31.3981406,78.65625 Z" id="Shape"></path>
                </g>
                <g id="Ultralight-M" transform="translate(11.295000, 422.000000)">
                    <path d="M13,103.2598 L65.8809,103.2598 C74.0352,103.2598 78.3809,98.9141 78.3809,90.71094 L78.3809,13.0254 C78.3809,4.8223 74.0352,0.4766 65.8809,0.4766 L13,0.4766 C4.9434,0.4766 0.4512,4.8223 0.4512,13.0254 L0.4512,90.71094 C0.4512,98.9141 4.7969,103.2598 13,103.2598 Z M65.7344,2.8691 C72.5215,2.8691 75.9883,6.3848 75.9883,13.123 L75.9883,90.61328 C75.9883,97.3516 72.5215,100.8672 65.7344,100.8672 L13.0977,100.8672 C6.3594,100.8672 2.8438,97.3516 2.8438,90.61328 L2.8438,13.123 C2.8438,6.6289 6.3594,2.8691 13.0977,2.8691 L65.7344,2.8691 Z M54.0000469,25.1171875 L39.5625469,28.234375 C37.7852031,28.6171875 36.8828594,29.5195313 36.8828594,31.0234375 L37.0742656,60.4179688 C37.0742656,61.7578125 36.4180156,62.6328125 35.2148906,62.8789063 L30.9219219,63.78125 C25.5078594,64.9023438 23.0195781,67.6367188 23.0195781,71.6835938 C23.0195781,75.7851563 26.1641094,78.65625 30.6211406,78.65625 C34.5859844,78.65625 40.4648906,75.7578125 40.4648906,67.9375 L40.4648906,43.875 C40.4648906,42.4257813 40.7383281,42.125 42.0781719,41.8242188 L55.1211406,38.9804688 C56.1055156,38.7617188 56.7344219,37.9960938 56.7344219,37.0117188 L56.7344219,27.359375 C56.7344219,25.828125 55.5039531,24.8164063 54.0000469,25.1171875 Z" id="Shape"></path>
                </g>
                <g id="Black-S" transform="translate(2387.700000, 0.000000)">
                    <path d="M16,87.1543 L57.4062,87.1543 C66.9766,87.1543 72.6406,81.49023 72.6406,71.91992 L72.6406,15.6699 C72.6406,6.0996 66.9766,0.4355 57.4062,0.4355 L16,0.4355 C6.4297,0.4355 0.76562,6.0996 0.76562,15.6699 L0.76562,71.91992 C0.76562,81.49023 6.4297,87.1543 16,87.1543 Z M18.2461,72.99414 C15.8047,72.99414 14.9258,71.91992 14.9258,69.67383 L14.9258,17.916 C14.9258,15.6699 15.8047,14.5957 18.2461,14.5957 L55.1602,14.5957 C57.6016,14.5957 58.4805,15.6699 58.4805,17.916 L58.4805,69.67383 C58.4805,71.91992 57.6016,72.99414 55.1602,72.99414 L18.2461,72.99414 Z M25.2285,29.0488 L48.2266,29.0488 C49.7891,29.0488 50.9609,27.8281 50.9609,26.2656 C50.9609,24.752 49.7891,23.5801 48.2266,23.5801 L25.2285,23.5801 C23.6172,23.5801 22.4453,24.752 22.4453,26.2656 C22.4453,27.8281 23.6172,29.0488 25.2285,29.0488 Z M25.2285,40.7676 L48.2266,40.7676 C49.7891,40.7676 50.9609,39.5469 50.9609,37.9844 C50.9609,36.4707 49.7891,35.2988 48.2266,35.2988 L25.2285,35.2988 C23.6172,35.2988 22.4453,36.4707 22.4453,37.9844 C22.4453,39.5469 23.6172,40.7676 25.2285,40.7676 Z M25.2285,52.4863 L37.8262,52.4863 C39.3887,52.4863 40.5605,51.3145 40.5605,49.8008 C40.5605,48.2383 39.3887,47.0176 37.8262,47.0176 L25.2285,47.0176 C23.6172,47.0176 22.4453,48.2383 22.4453,49.8008 C22.4453,51.3145 23.6172,52.4863 25.2285,52.4863 Z" id="Shape"></path>
                </g>
                <g id="Heavy-S" transform="translate(2091.790000, 0.000000)">
                    <path d="M15.3164,86.61719 L56.4785,86.61719 C65.7559,86.61719 71.0293,81.34375 71.0293,72.06641 L71.0293,15.5234 C71.0293,6.2461 65.7559,0.9727 56.4785,0.9727 L15.3164,0.9727 C6.0391,0.9727 0.76562,6.2461 0.76562,15.5234 L0.76562,72.06641 C0.76562,81.34375 6.0391,86.61719 15.3164,86.61719 Z M17.0742,74.16602 C14.3887,74.16602 13.2656,72.84766 13.2656,70.30859 L13.2656,17.2812 C13.2656,14.7422 14.3887,13.4238 17.123,13.4238 L54.6719,13.4238 C57.4062,13.4238 58.5293,14.7422 58.5293,17.2812 L58.5293,70.30859 C58.5293,72.84766 57.4062,74.16602 54.6719,74.16602 L17.0742,74.16602 Z M23.7637,28.2676 L48.0312,28.2676 C49.5938,28.2676 50.7656,27.0469 50.7656,25.5332 C50.7656,24.0195 49.5938,22.8477 48.0312,22.8477 L23.7637,22.8477 C22.2012,22.8477 21.0293,24.0195 21.0293,25.5332 C21.0293,27.0469 22.2012,28.2676 23.7637,28.2676 Z M23.7637,40.377 L48.0312,40.377 C49.5938,40.377 50.7656,39.1562 50.7656,37.5938 C50.7656,36.1289 49.5938,34.957 48.0312,34.957 L23.7637,34.957 C22.2012,34.957 21.0293,36.1289 21.0293,37.5938 C21.0293,39.1562 22.2012,40.377 23.7637,40.377 Z M23.7637,52.4863 L36.5566,52.4863 C38.0703,52.4863 39.2422,51.3145 39.2422,49.8008 C39.2422,48.2383 38.0703,47.0176 36.5566,47.0176 L23.7637,47.0176 C22.2012,47.0176 21.0293,48.2383 21.0293,49.8008 C21.0293,51.3145 22.2012,52.4863 23.7637,52.4863 Z" id="Shape"></path>
                </g>
                <g id="Bold-S" transform="translate(1795.980000, 1.000000)">
                    <path d="M14.5352,85.08008 L55.4531,85.08008 C64.3398,85.08008 69.2227,80.14844 69.2227,71.21289 L69.2227,14.377 C69.2227,5.4414 64.3398,0.5586 55.4531,0.5586 L14.5352,0.5586 C5.6484,0.5586 0.76562,5.4414 0.76562,14.377 L0.76562,71.21289 C0.76562,80.14844 5.6484,85.08008 14.5352,85.08008 Z M15.8047,74.43555 C12.7773,74.43555 11.3613,72.92188 11.3613,70.04102 L11.3613,15.5488 C11.3613,12.668 12.7773,11.1543 15.8047,11.1543 L54.1348,11.1543 C57.2109,11.1543 58.627,12.668 58.627,15.5488 L58.627,70.04102 C58.627,72.92188 57.2109,74.43555 54.1836,74.43555 L15.8047,74.43555 Z M22.1523,26.4375 L47.8359,26.4375 C49.3984,26.4375 50.5703,25.2168 50.5703,23.7031 C50.5703,22.1895 49.3984,21.0664 47.8359,21.0664 L22.1523,21.0664 C20.5898,21.0664 19.418,22.1895 19.418,23.7031 C19.418,25.2168 20.5898,26.4375 22.1523,26.4375 Z M22.1523,38.9375 L47.8359,38.9375 C49.3984,38.9375 50.5703,37.7168 50.5703,36.2031 C50.5703,34.6895 49.3984,33.5664 47.8359,33.5664 L22.1523,33.5664 C20.5898,33.5664 19.418,34.6895 19.418,36.2031 C19.418,37.7168 20.5898,38.9375 22.1523,38.9375 Z M22.1523,51.4375 L35.0918,51.4375 C36.6543,51.4375 37.7773,50.2656 37.7773,48.8008 C37.7773,47.2383 36.6543,46.0664 35.0918,46.0664 L22.1523,46.0664 C20.5898,46.0664 19.418,47.2383 19.418,48.8008 C19.418,50.2656 20.5898,51.4375 22.1523,51.4375 Z" id="Shape"></path>
                </g>
                <g id="Semibold-S" transform="translate(1499.910000, 1.000000)">
                    <path d="M13.998,84.64062 L54.7695,84.64062 C63.4121,84.64062 67.9531,80.05078 67.9531,71.31055 L67.9531,14.2793 C67.9531,5.5879 63.4121,0.9492 54.7695,0.9492 L13.998,0.9492 C5.3555,0.9492 0.76562,5.5879 0.76562,14.2793 L0.76562,71.31055 C0.76562,80.05078 5.3555,84.64062 13.998,84.64062 Z M14.9258,75.36328 C11.6543,75.36328 10.0918,73.6543 10.0918,70.5293 L10.0918,15.0605 C10.0918,11.9355 11.6543,10.2266 14.9258,10.2266 L53.793,10.2266 C57.0645,10.2266 58.6758,11.9355 58.6758,15.0605 L58.6758,70.5293 C58.6758,73.6543 57.0645,75.36328 53.793,75.36328 L14.9258,75.36328 Z M21.0781,25.8516 L47.7383,25.8516 C49.252,25.8516 50.375,24.6309 50.375,23.1172 C50.375,21.6523 49.252,20.4805 47.7383,20.4805 L21.0781,20.4805 C19.4668,20.4805 18.3438,21.6523 18.3438,23.1172 C18.3438,24.6309 19.4668,25.8516 21.0781,25.8516 Z M21.0781,38.6445 L47.7383,38.6445 C49.252,38.6445 50.375,37.4238 50.375,35.9102 C50.375,34.4453 49.252,33.2734 47.7383,33.2734 L21.0781,33.2734 C19.4668,33.2734 18.3438,34.4453 18.3438,35.9102 C18.3438,37.4238 19.4668,38.6445 21.0781,38.6445 Z M21.0781,51.4375 L34.1152,51.4375 C35.6289,51.4375 36.8008,50.2656 36.8008,48.8008 C36.8008,47.2871 35.6289,46.0664 34.1152,46.0664 L21.0781,46.0664 C19.4668,46.0664 18.3438,47.2871 18.3438,48.8008 C18.3438,50.2656 19.4668,51.4375 21.0781,51.4375 Z" id="Shape"></path>
                </g>
                <g id="Medium-S" transform="translate(1203.660000, 2.000000)">
                    <path d="M13.5586,83.34766 L54.2324,83.34766 C62.6797,83.34766 67.0254,78.95312 67.0254,70.4082 L67.0254,13.1816 C67.0254,4.6855 62.6797,0.2422 54.2324,0.2422 L13.5586,0.2422 C5.1113,0.2422 0.76562,4.6855 0.76562,13.1816 L0.76562,70.4082 C0.76562,78.95312 5.1113,83.34766 13.5586,83.34766 Z M14.2422,75.04688 C10.8242,75.04688 9.0664,73.19141 9.0664,69.91992 L9.0664,13.6699 C9.0664,10.3984 10.8242,8.543 14.291,8.543 L53.5,8.543 C56.9668,8.543 58.6758,10.3984 58.6758,13.6699 L58.6758,69.91992 C58.6758,73.19141 56.9668,75.04688 53.5488,75.04688 L14.2422,75.04688 Z M20.1992,24.3633 L47.6406,24.3633 C49.1543,24.3633 50.2773,23.1914 50.2773,21.6777 C50.2773,20.2129 49.1543,19.041 47.6406,19.041 L20.1992,19.041 C18.6367,19.041 17.5137,20.2129 17.5137,21.6777 C17.5137,23.1914 18.6367,24.3633 20.1992,24.3633 Z M20.1992,37.4004 L47.6406,37.4004 C49.1543,37.4004 50.2773,36.2285 50.2773,34.666 C50.2773,33.2012 49.1543,32.0781 47.6406,32.0781 L20.1992,32.0781 C18.6367,32.0781 17.5137,33.2012 17.5137,34.666 C17.5137,36.2285 18.6367,37.4004 20.1992,37.4004 Z M20.1992,50.3887 L33.3828,50.3887 C34.8965,50.3887 36.0195,49.2656 36.0195,47.8008 C36.0195,46.2871 34.8965,45.0664 33.3828,45.0664 L20.1992,45.0664 C18.6367,45.0664 17.5137,46.2871 17.5137,47.8008 C17.5137,49.2656 18.6367,50.3887 20.1992,50.3887 Z" id="Shape"></path>
                </g>
                <g id="Regular-S" transform="translate(907.560000, 2.000000)">
                    <path d="M13.0215,82.95703 L53.5,82.95703 C61.7031,82.95703 65.8047,78.85547 65.8047,70.50586 L65.8047,13.084 C65.8047,4.7832 61.7031,0.6328 53.5,0.6328 L13.0215,0.6328 C4.8184,0.6328 0.76562,4.7832 0.76562,13.084 L0.76562,70.50586 C0.76562,78.85547 4.8184,82.95703 13.0215,82.95703 Z M13.3633,75.92578 C9.7012,75.92578 7.7969,73.92383 7.7969,70.4082 L7.7969,13.1816 C7.7969,9.666 9.7012,7.6641 13.4121,7.6641 L53.1582,7.6641 C56.8203,7.6641 58.7246,9.666 58.7246,13.1816 L58.7246,70.4082 C58.7246,73.92383 56.8203,75.92578 53.207,75.92578 L13.3633,75.92578 Z M19.125,23.7773 L47.4941,23.7773 C49.0078,23.7773 50.1309,22.6055 50.1309,21.0918 C50.1309,19.627 49.0078,18.5039 47.4941,18.5039 L19.125,18.5039 C17.5625,18.5039 16.4395,19.627 16.4395,21.0918 C16.4395,22.6055 17.5625,23.7773 19.125,23.7773 Z M19.125,37.1074 L47.4941,37.1074 C49.0078,37.1074 50.1309,35.8867 50.1309,34.4219 C50.1309,32.957 49.0078,31.7852 47.4941,31.7852 L19.125,31.7852 C17.5625,31.7852 16.4395,32.957 16.4395,34.4219 C16.4395,35.8867 17.5625,37.1074 19.125,37.1074 Z M19.125,50.3887 L32.4062,50.3887 C33.9199,50.3887 35.043,49.2656 35.043,47.8008 C35.043,46.2871 33.9199,45.1152 32.4062,45.1152 L19.125,45.1152 C17.5625,45.1152 16.4395,46.2871 16.4395,47.8008 C16.4395,49.2656 17.5625,50.3887 19.125,50.3887 Z" id="Shape"></path>
                </g>
                <g id="Light-S" transform="translate(611.480000, 2.000000)">
                    <path d="M12.2891,82.71289 L53.0605,82.71289 C60.6777,82.71289 64.5352,78.80664 64.5352,71.04297 L64.5352,12.5469 C64.5352,4.832 60.6777,0.9258 53.0605,0.9258 L12.2891,0.9258 C4.6719,0.9258 0.76562,4.832 0.76562,12.5469 L0.76562,71.04297 C0.76562,78.80664 4.623,82.71289 12.2891,82.71289 Z M12.5332,77.244141 C8.3828,77.244141 6.1855,75.04688 6.1855,70.94531 L6.1855,12.6445 C6.1855,8.6406 8.3828,6.3457 12.582,6.3457 L52.7676,6.3457 C56.9668,6.3457 59.1152,8.5918 59.1152,12.6445 L59.1152,70.94531 C59.1152,75.04688 56.9668,77.244141 52.7676,77.244141 L12.5332,77.244141 Z M17.9043,22.2148 L47.4453,22.2148 C48.666,22.2148 49.5938,21.2871 49.5938,20.0664 C49.5938,18.8945 48.666,17.9668 47.4453,17.9668 L17.9043,17.9668 C16.6348,17.9668 15.7559,18.8945 15.7559,20.0664 C15.7559,21.2871 16.6348,22.2148 17.9043,22.2148 Z M17.9043,35.5938 L47.4453,35.5938 C48.666,35.5938 49.5938,34.666 49.5938,33.4453 C49.5938,32.2734 48.666,31.3457 47.4453,31.3457 L17.9043,31.3457 C16.6348,31.3457 15.7559,32.2734 15.7559,33.4453 C15.7559,34.666 16.6348,35.5938 17.9043,35.5938 Z M17.9043,48.9727 L32.0156,48.9727 C33.2363,48.9727 34.1641,48.0449 34.1641,46.873 C34.1641,45.7012 33.2363,44.7734 32.0156,44.7734 L17.9043,44.7734 C16.6348,44.7734 15.7559,45.7012 15.7559,46.873 C15.7559,48.0449 16.6348,48.9727 17.9043,48.9727 Z" id="Shape"></path>
                </g>
                <g id="Thin-S" transform="translate(315.578000, 3.000000)">
                    <path d="M11.2637,81.37109 L52.4258,81.37109 C59.3594,81.37109 62.9238,77.75781 62.9238,70.77539 L62.9238,10.8633 C62.9238,3.9297 59.3594,0.3164 52.4258,0.3164 L11.2637,0.3164 C4.4277,0.3164 0.76562,3.9297 0.76562,10.8633 L0.76562,70.77539 C0.76562,77.75781 4.3789,81.37109 11.2637,81.37109 Z M52.2793,3.6367 C57.1133,3.6367 59.6035,6.1758 59.6035,10.9609 L59.6035,70.67773 C59.6035,75.511719 57.1133,78.05078 52.2793,78.05078 L11.4102,78.05078 C6.5762,78.05078 4.0859,75.511719 4.0859,70.67773 L4.0859,10.9609 C4.0859,6.3223 6.5762,3.6367 11.459,3.6367 L52.2793,3.6367 Z M45.1602578,16.3945312 L31.7540078,19.2890625 C30.1036172,19.6445312 29.2657266,20.4824219 29.2657266,21.8789062 L29.4434609,49.1738281 C29.4434609,50.4179687 28.8340859,51.2304687 27.7168984,51.4589844 L23.7305703,52.296875 C18.7032266,53.3378906 16.3926797,55.8769531 16.3926797,59.6347656 C16.3926797,63.4433594 19.3126016,66.109375 23.4512734,66.109375 C27.1329141,66.109375 32.5918984,63.4179687 32.5918984,56.15625 L32.5918984,33.8125 C32.5918984,32.4667969 32.8458047,32.1875 34.0899453,31.9082031 L46.2012734,29.2675781 C47.1153359,29.0644531 47.6993203,28.3535156 47.6993203,27.4394531 L47.6993203,18.4765625 C47.6993203,17.0546875 46.5567422,16.1152344 45.1602578,16.3945312 Z" id="Shape"></path>
                </g>
                <g id="Ultralight-S" transform="translate(19.281000, 3.000000)">
                    <path d="M10.7266,81.17578 L52.084,81.17578 C58.627,81.17578 62.0938,77.70898 62.0938,71.16602 L62.0938,10.5215 C62.0938,3.9785 58.627,0.5117 52.084,0.5117 L10.7266,0.5117 C4.3301,0.5117 0.76562,3.9785 0.76562,10.5215 L0.76562,71.16602 C0.76562,77.70898 4.2324,81.17578 10.7266,81.17578 Z M51.9863,2.709 C57.2109,2.709 59.8965,5.3945 59.8965,10.6191 L59.8965,71.06836 C59.8965,76.244141 57.2109,78.97852 51.9863,78.97852 L10.873,78.97852 C5.6484,78.97852 2.9629,76.244141 2.9629,71.06836 L2.9629,10.6191 C2.9629,5.5898 5.6484,2.709 10.873,2.709 L51.9863,2.709 Z M44.9064766,16.6484375 L31.5256172,19.5175781 C29.9006172,19.8730469 29.0881172,20.6855469 29.0881172,22.03125 L29.2658516,49.046875 C29.2658516,50.3164062 28.6310859,51.1542969 27.5138984,51.3828125 L23.5275703,52.2207031 C18.5763984,53.2617187 16.2658516,55.75 16.2658516,59.4824219 C16.2658516,63.2402344 19.1349922,65.8554687 23.2228828,65.8554687 C26.8791328,65.8554687 32.2873359,63.2148437 32.2873359,56.0039062 L32.2873359,33.9394531 C32.2873359,32.5683594 32.5666328,32.2890625 33.8107734,31.984375 L45.9474922,29.3183594 C46.8615547,29.140625 47.4201484,28.4296875 47.4201484,27.515625 L47.4201484,18.7050781 C47.4201484,17.2832031 46.3029609,16.34375 44.9064766,16.6484375 Z" id="Shape"></path>
                </g>
            </g>
        </g>
    </g>
</svg>